<svg xmlns="http://www.w3.org/2000/svg" viewBox="0 0 275.28 275.28"><path fill="#f47c6d" d="M170.528 153.968L115.1 186.159l-.186-64.103z"/><path d="M259.231 82.832v156.741H16.049V82.832h243.182zm-68.626 78.045a8.064 8.064 0 0 0 3.997-6.971c-.031-2.85-1.549-5.515-4.028-6.94l-79.718-45.73a7.99 7.99 0 0 0-8.024.031 7.92 7.92 0 0 0-3.966 6.94l.217 91.894a8.005 8.005 0 0 0 4.028 6.94 8.032 8.032 0 0 0 3.997 1.053c1.394 0 2.788-.341 4.028-1.084l79.469-46.133z" fill="#c5cbcf"/><path d="M275.28 27.683v219.914a8.026 8.026 0 0 1-8.024 8.024H8.024A8.025 8.025 0 0 1 0 247.597V27.683a8.025 8.025 0 0 1 8.024-8.024h259.231a8.025 8.025 0 0 1 8.025 8.024zm-16.049 211.89V82.832H16.049v156.741h243.182zm0-172.79V35.676H16.049v31.106h77.147l166.035.001z" fill="#2d213f"/><path d="M194.601 153.906a8.064 8.064 0 0 1-3.997 6.971l-79.47 46.133c-1.239.744-2.634 1.084-4.028 1.084a8.045 8.045 0 0 1-3.997-1.053 8.005 8.005 0 0 1-4.028-6.94l-.217-91.894a7.92 7.92 0 0 1 3.966-6.94 7.99 7.99 0 0 1 8.024-.031l79.718 45.73c2.48 1.425 3.998 4.089 4.029 6.94zM115.1 186.159l55.428-32.191-55.614-31.912.186 64.103zM83.994 51.632c0-5.112 4.121-9.233 9.202-9.233a9.217 9.217 0 0 1 9.233 9.233c0 5.081-4.121 9.202-9.233 9.202a9.202 9.202 0 0 1-9.202-9.202z" fill="#2d213f"/><path d="M93.196 35.676H16.049v31.106H259.231V35.676H93.196zM41.269 60.834a9.203 9.203 0 0 1-9.202-9.202c0-5.112 4.121-9.233 9.202-9.233a9.217 9.217 0 0 1 9.233 9.233c0 5.082-4.121 9.202-9.233 9.202zm26.18 0a9.203 9.203 0 0 1-9.202-9.202c0-5.112 4.121-9.233 9.202-9.233s9.202 4.121 9.202 9.233a9.203 9.203 0 0 1-9.202 9.202zm25.747 0a9.203 9.203 0 0 1-9.202-9.202c0-5.112 4.121-9.233 9.202-9.233a9.217 9.217 0 0 1 9.233 9.233c-.001 5.082-4.121 9.202-9.233 9.202z" fill="#454d5b"/><path d="M67.449 42.4c5.081 0 9.202 4.121 9.202 9.233a9.203 9.203 0 0 1-9.202 9.202 9.203 9.203 0 0 1-9.202-9.202c0-5.113 4.121-9.233 9.202-9.233zM41.269 42.4a9.217 9.217 0 0 1 9.233 9.233c0 5.081-4.121 9.202-9.233 9.202a9.203 9.203 0 0 1-9.202-9.202c0-5.113 4.121-9.233 9.202-9.233z" fill="#2d213f"/><path d="M102.425 51.524c0 .037.012.071.012.108 0 2.017-.672 3.867-1.781 5.385-1.329 1.825-3.293 3.16-5.595 3.631a9.172 9.172 0 0 1-1.856.186h-.006a9.203 9.203 0 0 1-9.202-9.202c0-.037.009-.071.009-.108h-7.355c0 .037.009.071.009.108a9.203 9.203 0 0 1-9.202 9.202H67.449a9.256 9.256 0 0 1-1.614-.161c-4.331-.765-7.609-4.511-7.609-9.038 0-.037.009-.071.009-.108h-7.746c0 .037.012.071.012.108 0 4.53-3.278 8.272-7.609 9.038a9.227 9.227 0 0 1-1.614.161h-.006a9.203 9.203 0 0 1-9.202-9.202c0-.037.009-.071.009-.108h-7.492c-2.934 0-5.781.359-8.529.985v14.274h194.768c-8.458-9.351-20.65-15.259-34.251-15.259h-74.15z" fill="#505967"/><path d="M47.502 217.436h131.57c24.154 0 43.732-19.578 43.732-43.732V97.756c0-5.23-.908-10.237-2.51-14.924H16.058v125.845c9.202 5.524 19.931 8.759 31.444 8.759zm55.329-116.17a7.99 7.99 0 0 1 8.024-.031l79.718 45.73c2.479 1.425 3.997 4.09 4.028 6.94a8.064 8.064 0 0 1-3.997 6.971l-79.47 46.133c-1.239.744-2.634 1.084-4.028 1.084a8.045 8.045 0 0 1-3.997-1.053 8.005 8.005 0 0 1-4.028-6.94l-.217-91.894a7.924 7.924 0 0 1 3.967-6.94z" fill="#eaeeef"/></svg>